<?xml version="1.0" encoding="UTF-8" standalone="no"?>
<svg
   xmlns:dc="http://purl.org/dc/elements/1.1/"
   xmlns:cc="http://creativecommons.org/ns#"
   xmlns:rdf="http://www.w3.org/1999/02/22-rdf-syntax-ns#"
   xmlns:svg="http://www.w3.org/2000/svg"
   xmlns="http://www.w3.org/2000/svg"
   xmlns:sodipodi="http://sodipodi.sourceforge.net/DTD/sodipodi-0.dtd"
   xmlns:inkscape="http://www.inkscape.org/namespaces/inkscape"
   id="svg8"
   version="1.1"
   viewBox="0 0 285.75001 285.75001"
   height="1080"
   width="1080"
   inkscape:version="1.0 (4035a4f, 2020-05-01)"
   sodipodi:docname="drawing-1.svg">
  <defs
     id="defs2">
    <filter
       height="1.1709412"
       y="-0.08547058"
       width="1.1709412"
       x="-0.08547058"
       id="filter1242"
       style="color-interpolation-filters:sRGB"
       inkscape:collect="always">
      <feGaussianBlur
         id="feGaussianBlur1244"
         stdDeviation="8.4552613"
         inkscape:collect="always" />
    </filter>
  </defs>
  <sodipodi:namedview
     showborder="false"
     inkscape:snap-global="false"
     inkscape:snap-bbox="true"
     id="base"
     pagecolor="#ffffff"
     bordercolor="#666666"
     borderopacity="1.0"
     inkscape:pageopacity="0.0"
     inkscape:pageshadow="2"
     inkscape:zoom="0.74105732"
     inkscape:cx="468.98755"
     inkscape:cy="484.06656"
     inkscape:document-units="mm"
     inkscape:current-layer="layer4"
     inkscape:document-rotation="0"
     showgrid="false"
     units="px"
     inkscape:window-width="1792"
     inkscape:window-height="1120"
     inkscape:window-x="0"
     inkscape:window-y="0"
     inkscape:window-maximized="0" />
  <metadata
     id="metadata5">
    <rdf:RDF>
      <cc:Work
         rdf:about="">
        <dc:format>image/svg+xml</dc:format>
        <dc:type
           rdf:resource="http://purl.org/dc/dcmitype/StillImage" />
        <dc:title></dc:title>
      </cc:Work>
    </rdf:RDF>
  </metadata>
  <g
     style="display:inline;opacity:1;mix-blend-mode:normal"
     inkscape:label="Layer 4"
     id="layer4"
     inkscape:groupmode="layer">
    <circle
       r="118.71118"
       cy="142.875"
       cx="142.875"
       id="path887"
       style="opacity:0.39;fill:#ffffff;fill-rule:evenodd;stroke:#ff0000;stroke-width:0.79375;stroke-linecap:round;stroke-linejoin:round;stroke-miterlimit:4;stroke-dasharray:none;stroke-opacity:1;filter:url(#filter1242)" />
    <circle
       transform="matrix(0.62157926,0,0,0.62157926,54.066862,54.066862)"
       style="opacity:0.39;fill:#ffffff;fill-rule:evenodd;stroke:#ff0000;stroke-width:0.79375;stroke-linecap:round;stroke-linejoin:round;stroke-miterlimit:4;stroke-dasharray:none;stroke-opacity:1;filter:url(#filter1242)"
       id="circle1246"
       cx="142.875"
       cy="142.875"
       r="118.71118" />
  </g>
  <g
     style="display:inline"
     inkscape:label="Layer 3"
     id="layer3"
     inkscape:groupmode="layer">
    <path
       id="path1670"
       style="display:inline;fill:#000000;stroke:none;stroke-width:0.999995;stroke-linecap:square;paint-order:markers stroke fill"
       d="m 152.62263,58.491036 c -15.7845,0.0011 -30.25769,6.389015 -40.77839,16.939016 -10.5206,10.549001 -16.891725,25.063078 -16.893027,40.892078 v 0.006 c 1.67e-4,7.623 1.473065,14.90039 4.146518,21.56406 l 3.022559,3.28197 c -1.5928,-5.29388 -2.454466,-10.90566 -2.454636,-16.72043 v -0.005 c 0.0011,-15.75901 6.330126,-30.301107 16.893026,-40.893108 10.5628,-10.591998 25.06411,-16.939019 40.77891,-16.939019 h 0.003 c 15.296,0 29.96505,6.09333 40.78097,16.939019 l 0.001,0.0011 c 2.42426,2.431214 4.60817,5.057717 6.5412,7.840867 -2.79586,-5.869207 -6.58214,-11.278973 -11.25616,-15.965951 l -0.001,-0.0011 C 182.5907,64.584051 167.92173,58.491036 152.62573,58.491036 Z" />
    <path
       id="path1563"
       style="display:inline;fill:#000000;stroke:none;stroke-width:0.999995;stroke-linecap:square;paint-order:markers stroke fill"
       d="m 180.91237,107.24103 c -15.366,0 -30.00789,6.13602 -40.78148,16.93902 -6.1717,6.18899 -10.81201,13.65239 -13.65344,21.79453 2.31856,0.9126 4.69598,1.67523 7.11895,2.281 2.79522,-5.86279 6.5791,-11.26672 11.24893,-15.94941 10.816,-10.84698 25.48601,-16.94006 40.782,-16.94006 h 0.003 c 10.98385,8e-4 21.64401,3.14346 30.78675,8.93176 0.42721,0.27047 0.85078,0.54743 1.27124,0.82941 -0.42048,-0.28198 -0.84402,-0.55893 -1.27124,-0.82941 7.9309,7.63536 13.37769,17.25687 15.9706,27.62105 3.60233,14.39577 1.66598,30.08885 -6.50761,43.67486 l -10e-4,0.002 c -7.88532,13.10684 -20.66834,22.53511 -35.53789,26.21184 l -0.001,5.3e-4 c -3.33442,0.82449 -6.7123,1.34167 -10.09499,1.56321 6.4718,0.63035 13.06092,0.17416 19.48821,-1.41542 l 5.3e-4,-5.3e-4 c 14.86903,-3.67587 27.65256,-13.10534 35.53737,-26.21132 l 0.001,-0.002 c 8.20872,-13.64634 10.09429,-29.33679 6.5071,-43.67433 -2.96358,-11.84506 -9.66607,-22.7635 -19.62102,-30.84566 0.477,0.88086 0.93384,1.77219 1.36426,2.6758 -0.94932,-1.36677 -1.96005,-2.69495 -3.02928,-3.98167 -1.60407,-1.20801 -3.285,-2.34618 -5.04362,-3.40444 l -0.004,-0.003 c -6.55544,-3.94387 -13.57718,-6.4365 -20.69125,-7.57525 -4.49132,-1.11366 -9.1352,-1.69209 -13.83895,-1.6924 z m 14.50248,1.8619 c 0.18009,0.0469 0.35992,0.0945 0.5395,0.14315 -0.17955,-0.0487 -0.35944,-0.0962 -0.5395,-0.14315 z m 1.14463,0.30954 c 0.2471,0.0699 0.49343,0.14289 0.73949,0.21601 -0.24617,-0.0732 -0.49228,-0.14612 -0.73949,-0.21601 z m 1.59784,0.47853 c 0.17354,0.0545 0.34688,0.1092 0.51986,0.16536 -0.17292,-0.0562 -0.34639,-0.11084 -0.51986,-0.16536 z m 1.16117,0.37724 c 0.20686,0.0698 0.41306,0.14175 0.61908,0.21394 -0.20607,-0.0722 -0.41217,-0.14406 -0.61908,-0.21394 z m 1.44642,0.51108 c 0.21213,0.078 0.42392,0.15672 0.6351,0.23719 -0.21112,-0.0805 -0.42303,-0.15922 -0.6351,-0.23719 z m 1.23455,0.46973 c 0.18458,0.0727 0.3686,0.14709 0.55242,0.2217 -0.18388,-0.0746 -0.36777,-0.14895 -0.55242,-0.2217 z m 1.2454,0.50695 c 0.28269,0.11903 0.56465,0.23975 0.84543,0.36329 -0.28072,-0.12355 -0.5628,-0.24425 -0.84543,-0.36329 z m 1.3131,0.57258 c 0.22904,0.10321 0.45701,0.20849 0.68471,0.3147 -0.22768,-0.10623 -0.45569,-0.21147 -0.68471,-0.3147 z m 1.14153,0.52813 c 0.33177,0.15831 0.66186,0.32004 0.99064,0.48472 -0.32869,-0.16468 -0.65896,-0.32641 -0.99064,-0.48472 z m 1.41335,0.70021 c 0.22911,0.11713 0.45764,0.23583 0.68523,0.35606 -0.22761,-0.12027 -0.45609,-0.23889 -0.68523,-0.35606 z m 1.12603,0.59015 c 0.33072,0.17838 0.66019,0.35923 0.98754,0.54415 -0.32735,-0.18496 -0.65683,-0.36573 -0.98754,-0.54415 z m 1.35031,0.75344 c 0.22816,0.13109 0.45567,0.26313 0.68212,0.39739 -0.2264,-0.13426 -0.45401,-0.2663 -0.68212,-0.39739 z m 1.13843,0.67024 c 0.29134,0.17639 0.58134,0.35526 0.86971,0.53692 -0.28837,-0.18169 -0.57837,-0.36049 -0.86971,-0.53692 z m 1.11466,0.69247 c 0.30238,0.19262 0.60276,0.38864 0.90175,0.58704 -0.299,-0.19844 -0.59936,-0.39438 -0.90175,-0.58704 z m 1.26659,0.83095 c 0.25285,0.17058 0.50415,0.34361 0.75447,0.51832 -0.25027,-0.1747 -0.50167,-0.34775 -0.75447,-0.51832 z m 1.02836,0.70849 c 0.32093,0.22676 0.63941,0.45786 0.95601,0.69143 -0.31665,-0.23364 -0.63503,-0.46459 -0.95601,-0.69143 z m 1.29449,0.94413 c 0.23974,0.17958 0.47806,0.36118 0.7152,0.54467 -0.23711,-0.1835 -0.47549,-0.36508 -0.7152,-0.54467 z m 1.01183,0.77411 c 0.31432,0.24649 0.62626,0.49646 0.93586,0.74982 -0.30961,-0.25339 -0.62153,-0.50329 -0.93586,-0.74982 z m 1.19579,0.96532 c 0.25033,0.20731 0.49909,0.41658 0.74621,0.62838 -0.24707,-0.21178 -0.49593,-0.42109 -0.74621,-0.62838 z m 1.02165,0.86506 c 0.30638,0.26597 0.61082,0.53482 0.91208,0.8077 -0.30128,-0.27292 -0.60567,-0.54169 -0.91208,-0.8077 z m 1.1069,0.98702 c 0.26001,0.23769 0.51806,0.47805 0.77412,0.72089 -0.25604,-0.24284 -0.51412,-0.4832 -0.77412,-0.72089 z m 1.00769,0.94309 c 0.30894,0.29628 0.61585,0.59489 0.91881,0.89866 -0.30294,-0.30376 -0.60989,-0.60239 -0.91881,-0.89866 z m -2.69699,2.11357 c 0.29137,0.19888 0.58227,0.39866 0.87023,0.60307 -0.28801,-0.20444 -0.57881,-0.40416 -0.87023,-0.60307 z m 1.28209,0.90124 c 0.27888,0.20168 0.55699,0.40445 0.83251,0.61133 -0.27547,-0.20682 -0.55369,-0.4097 -0.83251,-0.61133 z m 1.24851,0.92862 c 0.26191,0.2004 0.5226,0.4026 0.78134,0.60772 -0.25873,-0.20508 -0.51945,-0.40735 -0.78134,-0.60772 z m 1.24488,0.97927 c 0.23953,0.19393 0.47749,0.39009 0.71417,0.58808 -0.23674,-0.19802 -0.47458,-0.39412 -0.71417,-0.58808 z m 1.18236,0.98289 c 0.2439,0.20847 0.48532,0.42022 0.72605,0.63303 -0.24072,-0.21279 -0.48216,-0.42458 -0.72605,-0.63303 z m 1.1436,1.00252 c 0.26933,0.24277 0.53529,0.4897 0.80046,0.73794 -0.2651,-0.24817 -0.53119,-0.49524 -0.80046,-0.73794 z m 1.12654,1.0418 c 0.37153,0.35322 0.73981,0.71089 1.10278,1.07487 -0.36299,-0.364 -0.73122,-0.72163 -1.10278,-1.07487 z" />
    <path
       style="display:inline;fill:#000000;stroke:none;stroke-width:0.999995;stroke-linecap:square;paint-order:markers stroke fill"
       d="m 171.48246,90.991375 c -15.506,0 -30.09106,6.220018 -40.78046,16.939015 -8.53851,8.56207 -14.21007,19.6189 -16.14888,31.64562 1.82144,1.27392 3.71128,2.4373 5.65805,3.48816 2.51311,-10.19391 7.75684,-19.53915 15.20527,-27.00869 10.7321,-10.761 25.34498,-16.939029 40.78098,-16.939018 h 0.003 c 15.295,0 29.96391,6.094018 40.77891,16.939018 l 0.001,10e-4 c 2.42454,2.43127 4.6091,5.05816 6.54223,7.84138 -2.79575,-5.86943 -6.58242,-11.27934 -11.25616,-15.96647 l -0.001,-10e-4 C 201.4495,97.085393 186.78055,90.991372 171.48556,90.991372 Z"
       id="path1896" />
    <path
       id="path1668"
       style="display:inline;fill:#000000;stroke:none;stroke-width:0.999995;stroke-linecap:square;paint-order:markers stroke fill"
       d="M 95.831355,133.07733 C 89.334422,123.71794 85.521913,112.34445 85.521913,100.07624 v -0.005 c 0.0016,-15.968991 6.457239,-30.426033 16.893547,-40.891034 10.4363,-10.465012 24.85339,-16.938016 40.77839,-16.939022 h 0.003 c 15.295,0 29.96494,6.09301 40.77994,16.939022 h 0.001 c 4.67544,4.687967 8.46308,10.099048 11.25926,15.96957 -1.93366,-2.784359 -4.11835,-5.412322 -6.54379,-7.844483 l -0.001,-0.0011 C 177.87591,56.458066 163.20693,50.365055 147.91093,50.365055 h -0.002 c -15.8552,0 -30.30051,6.431016 -40.77891,16.939019 C 96.651516,77.811073 90.237875,92.296118 90.236474,108.19511 v 0.006 c 1.14e-4,8.90559 2.009496,17.3398 5.595012,24.87497 z" />
    <path
       style="display:inline;fill:#1d3557;fill-opacity:1;stroke:none;stroke-width:0.999995;stroke-linecap:square;paint-order:markers stroke fill"
       d="m 177.84951,115.89838 c -2.35524,0.32144 -4.68095,0.78733 -6.96546,1.3932 12.09409,8.10313 20.49576,20.2946 23.9329,34.031 3.66006,14.62762 1.52154,30.32997 -6.50761,43.67588 l -0.002,0.003 c -7.8848,13.10599 -20.66783,22.53406 -35.53736,26.2108 l -0.001,0.001 c -3.33199,0.82389 -6.70805,1.3414 -10.08828,1.56321 6.4695,0.62947 13.05584,0.17318 19.48047,-1.41542 h 0.001 c 14.86902,-3.67589 27.65204,-13.10448 35.53737,-26.21132 l 0.002,-0.003 c 8.06524,-13.40589 10.1526,-29.10608 6.50762,-43.67537 -3.64503,-14.5692 -12.88802,-27.46738 -26.33121,-35.55597 l -0.005,-0.003 c -0.008,-0.005 -0.0155,-0.009 -0.0233,-0.0139 z"
       id="path1581" />
    <path
       style="display:inline;fill:#000000;stroke:none;stroke-width:0.999995;stroke-linecap:square;paint-order:markers stroke fill"
       d="m 152.91977,125.57066 c -1.94422,1.34255 -3.81229,2.80865 -5.59191,4.39405 4.61995,6.1327 8.02035,13.17643 9.91826,20.76204 3.71877,14.85981 1.37719,30.57163 -6.50813,43.67847 l -0.002,0.003 c -7.88566,13.10547 -20.66834,22.53303 -35.53788,26.20977 h -0.001 c -3.33223,0.82379 -6.70782,1.34151 -10.08827,1.56321 6.46987,0.62979 13.05668,0.17428 19.48201,-1.41386 l 10e-4,-5.3e-4 c 14.86868,-3.67726 27.65114,-13.10485 35.53685,-26.21029 l 0.002,-0.003 c 7.92141,-13.16682 10.21158,-28.87612 6.50865,-43.67693 -2.3803,-9.51269 -7.12842,-18.20085 -13.72009,-25.30594 z"
       id="path1585" />
    <path
       style="display:inline;fill:#000000;stroke:none;stroke-width:0.999995;stroke-linecap:square;paint-order:markers stroke fill"
       d="m 164.57229,119.3607 c -2.02725,0.79722 -4.00922,1.7087 -5.93556,2.73162 8.53874,7.69651 14.60085,17.76538 17.39532,28.9326 3.68833,14.74359 1.44886,30.45012 -6.50864,43.67692 l -0.002,0.003 c -7.8848,13.10599 -20.66868,22.53388 -35.53685,26.21028 h -10e-4 c -3.33319,0.82418 -6.70993,1.34206 -10.09137,1.56373 6.47065,0.63015 13.05838,0.17417 19.48408,-1.41438 h 0.001 c 14.86868,-3.67726 27.65256,-13.10533 35.53736,-26.21132 l 0.002,-0.003 c 7.99357,-13.28679 10.183,-28.99105 6.50865,-43.6764 -3.14713,-12.57838 -10.45085,-23.81099 -20.85248,-31.81305 z"
       id="path1583" />
    <path
       style="display:inline;fill:#000000;stroke:none;stroke-width:0.999995;stroke-linecap:square;paint-order:markers stroke fill"
       d="m 186.08105,115.3718 c 0.39645,0.22611 0.79229,0.45387 1.18546,0.6904 l 0.004,0.002 c 13.50301,8.12494 22.70097,21.04501 26.33172,35.55649 3.63079,14.5114 1.59361,30.20914 -6.50761,43.67485 l -0.002,0.003 c -7.88532,13.10684 -20.66835,22.53509 -35.53788,26.21183 l -0.001,5.3e-4 c -3.333,0.82398 -6.709,1.34107 -10.09034,1.5627 6.47052,0.62994 13.05787,0.17447 19.48357,-1.41439 h 0.001 c 14.86954,-3.67674 27.65257,-13.10551 35.53788,-26.21235 l 0.002,-0.003 c 8.13631,-13.52592 10.12361,-29.22066 6.5071,-43.67433 -3.56768,-14.26104 -12.5295,-27.04716 -25.79636,-35.22472 -3.63403,-0.74647 -7.3557,-1.14334 -11.11767,-1.17306 z"
       id="path1579" />
    <path
       style="display:inline;fill:#000000;stroke:none;stroke-width:0.999995;stroke-linecap:square;paint-order:markers stroke fill"
       d="m 57.742632,132.26379 c -6.496934,9.35939 -10.309447,20.73288 -10.309447,33.00109 v 0.005 c 0.0016,15.969 6.457243,30.42604 16.893542,40.89105 10.436302,10.46501 24.853387,16.93801 40.778393,16.93902 h 0.003 c 3.15222,0 6.27691,-0.26256 9.34775,-0.76843 -3.12206,0.20154 -6.24771,0.1518 -9.34672,-0.14987 3.38046,-0.2217 6.75605,-0.73942 10.08828,-1.56321 h 0.001 c 10.80849,-2.67257 20.51205,-8.38604 28.03601,-16.33957 -9.69608,6.91116 -21.35867,10.69702 -33.41191,10.69702 h -0.002 c -15.8552,0 -30.300503,-6.43101 -40.778905,-16.93901 C 58.56333,187.52945 52.149544,173.04447 52.148142,157.14548 v -0.006 c 1.14e-4,-8.90558 2.009497,-17.33982 5.595009,-24.87497 z"
       id="path1627" />
    <path
       style="display:inline;fill:#000000;stroke:none;stroke-width:0.999995;stroke-linecap:square;paint-order:markers stroke fill"
       d="m 67.173065,116.01155 c -0.40589,0.58467 -0.801315,1.17704 -1.185974,1.77716 -0.384866,0.60044 -0.758833,1.2083 -1.121894,1.82366 -0.181534,0.30768 -0.360426,0.61732 -0.536403,0.92862 -0.351954,0.62262 -0.692833,1.25258 -1.02216,1.88929 -0.164663,0.31836 -0.326339,0.63837 -0.48524,0.96015 -0.317807,0.64356 -0.623941,1.29395 -0.918292,1.95079 -0.441526,0.98525 -0.856644,1.98519 -1.243852,2.99878 -0.258138,0.67573 -0.503597,1.3572 -0.736904,2.04484 -0.583358,1.71929 -1.088398,3.47443 -1.510503,5.26221 -0.253233,1.07253 -0.476491,2.15676 -0.669211,3.25148 -0.192717,1.09472 -0.354896,2.19999 -0.485241,3.31504 -0.0869,0.74337 -0.159586,1.49103 -0.218074,2.24276 -0.116975,1.50345 -0.1767,3.02323 -0.176734,4.55683 v 0.006 c 8.2e-5,0.97142 0.02479,1.93762 0.07235,2.89853 7.93e-4,0.0177 0.0011,0.0355 0.0021,0.0532 0.0016,0.029 0.0042,0.0578 0.0057,0.0868 0.07174,1.3826 0.192767,2.75329 0.360182,4.11086 0.0067,0.0545 0.01175,0.1094 0.0186,0.16382 0.0074,0.0586 0.01672,0.11662 0.02429,0.17518 0.178396,1.37959 0.403411,2.74582 0.677479,4.09536 0.09523,0.46893 0.196302,0.93595 0.302824,1.40094 0.213045,0.92999 0.448513,1.85197 0.7059,2.76521 0.257387,0.91324 0.536512,1.81781 0.837158,2.71301 0.150323,0.4476 0.30622,0.89299 0.467156,1.33584 0.160935,0.44285 0.32675,0.88291 0.49816,1.32085 l 5.29e-4,5.3e-4 c 0.514165,1.31359 1.075055,2.60512 1.681036,3.8716 0.40405,0.84444 0.828241,1.6777 1.271756,2.49959 0.580375,1.07549 1.197491,2.12881 1.8433,3.16311 0.09447,0.1513 0.186309,0.30437 0.282151,0.45475 v 5.3e-4 c 0.250267,0.39268 0.505296,0.78209 0.764813,1.1684 0.105971,0.15775 0.215998,0.31256 0.323495,0.46923 0.945849,1.3785 1.947021,2.71734 3.007567,4.00802 l 5.29e-4,5.3e-4 c 0.590386,0.71849 1.198213,1.42307 1.822627,2.11254 0.624578,0.68964 1.265859,1.36433 1.923396,2.02364 0.831549,0.83386 1.690757,1.63873 2.570385,2.41949 0.163626,0.14524 0.325176,0.2928 0.490411,0.43615 h 5.29e-4 c 0.351107,0.3046 0.705757,0.60524 1.064019,0.90124 h 5.29e-4 c 0.159901,0.13211 0.322906,0.26029 0.484209,0.39067 0.561692,0.45402 1.129091,0.90058 1.707388,1.33326 0.744185,0.55679 1.502193,1.09594 2.272731,1.61643 0.385564,0.26045 0.773896,0.51624 1.16582,0.7674 0.391719,0.25103 0.786514,0.49736 1.184423,0.73897 2.387566,1.44975 4.884942,2.72848 7.474995,3.82199 0.431655,0.18224 0.865535,0.35936 1.302248,0.53124 0.436859,0.17193 0.87599,0.33828 1.317747,0.49971 0.441613,0.16136 0.885354,0.31746 1.331703,0.46818 1.785543,0.60297 3.608327,1.11995 5.463232,1.5472 0.92738,0.2136 1.86274,0.40504 2.80551,0.57309 0.47139,0.084 0.94456,0.16217 1.41956,0.23461 1.38623,0.21139 2.78805,0.37174 4.20232,0.48214 0.0394,0.003 0.0784,0.007 0.11783,0.0103 1.45473,0.11055 2.92286,0.16682 4.40283,0.16691 h 0.003 c 0.478,0 0.95527,-0.006 1.43195,-0.0176 2.38338,-0.0593 4.7493,-0.26633 7.08484,-0.61598 2.80248,-0.41956 5.56173,-1.04461 8.25634,-1.86604 0.44913,-0.13691 0.8966,-0.27957 1.34204,-0.42736 2.22706,-0.73892 4.40709,-1.61322 6.52725,-2.61793 0.42406,-0.20096 0.84585,-0.40722 1.26504,-0.61856 0.41919,-0.21135 0.83593,-0.42793 1.25005,-0.64958 0.82826,-0.4433 1.64626,-0.90709 2.45308,-1.39113 2.01705,-1.21008 3.96483,-2.54639 5.83065,-4.00389 0.39552,-0.30896 0.78604,-0.62534 1.17409,-0.94516 1.35131,-2.32041 2.532,-4.71852 3.53725,-7.17734 -1.86476,1.45644 -3.81125,2.79198 -5.82703,4.00131 -0.80682,0.48403 -1.62483,0.94783 -2.45308,1.39113 -0.41413,0.22164 -0.83086,0.43823 -1.25005,0.64957 -0.4192,0.21135 -0.84098,0.41761 -1.26504,0.61857 -2.12016,1.0047 -4.30019,1.879 -6.52725,2.61793 -0.44545,0.14779 -0.89291,0.29044 -1.34204,0.42736 -2.69461,0.82143 -5.45386,1.44648 -8.25634,1.86603 -2.33554,0.34966 -4.70146,0.55669 -7.08484,0.61599 -0.47668,0.0119 -0.95396,0.0176 -1.43196,0.0176 h -0.003 c -0.49126,0 -0.98087,-0.006 -1.46968,-0.0186 -0.48863,-0.0123 -0.97591,-0.0308 -1.46193,-0.0553 -0.48618,-0.0246 -0.97077,-0.0548 -1.45417,-0.0915 -0.0392,-0.003 -0.0781,-0.007 -0.1173,-0.0103 -0.87728,-0.0683 -1.74964,-0.1571 -2.6169,-0.26458 -0.0488,-0.006 -0.098,-0.0104 -0.14676,-0.0165 h -5.3e-4 c -0.0583,-0.007 -0.11594,-0.0167 -0.17415,-0.0243 -1.29569,-0.16798 -2.57916,-0.37963 -3.84938,-0.63303 -0.0747,-0.0149 -0.15016,-0.0277 -0.22479,-0.0429 h -5.3e-4 c -0.46664,-0.095 -0.93137,-0.19598 -1.39423,-0.30231 h -5.3e-4 c -0.46302,-0.10637 -0.92379,-0.21835 -1.38286,-0.3359 -0.91814,-0.2351 -1.82821,-0.49249 -2.72955,-0.77153 -1.80284,-0.55813 -3.570739,-1.20287 -5.298386,-1.93063 -0.431877,-0.18192 -0.861012,-0.369 -1.287775,-0.56121 -0.853524,-0.3844 -1.69646,-0.78912 -2.528527,-1.21388 -1.248106,-0.63712 -2.471391,-1.31929 -3.667477,-2.04431 -0.797391,-0.48336 -1.582804,-0.98575 -2.355413,-1.50689 -0.991278,-0.66863 -1.959333,-1.37123 -2.907316,-2.10013 -0.160205,-0.12318 -0.322186,-0.2441 -0.481108,-0.36897 h -5.29e-4 c -0.163449,-0.12842 -0.323681,-0.26099 -0.485759,-0.39119 -0.398105,-0.3198 -0.791649,-0.64529 -1.181322,-0.97565 -0.162976,-0.13817 -0.327904,-0.27393 -0.489376,-0.41393 h -5.3e-4 c -0.352417,-0.30555 -0.700791,-0.6155 -1.045932,-0.92966 -0.345318,-0.31432 -0.686874,-0.63268 -1.024744,-0.95549 -0.337696,-0.32265 -0.671402,-0.64931 -1.001488,-0.98031 -0.330091,-0.33101 -0.65596,-0.66595 -0.977717,-1.00459 -0.965274,-1.01592 -1.892737,-2.06549 -2.78071,-3.14709 -0.296077,-0.36064 -0.587653,-0.72483 -0.874882,-1.09244 -0.287147,-0.36749 -0.569836,-0.73831 -0.848011,-1.11259 -0.278175,-0.3743 -0.551548,-0.75183 -0.820621,-1.13275 -0.538149,-0.76185 -1.058098,-1.53652 -1.559078,-2.32389 -0.751473,-1.18105 -1.460482,-2.39039 -2.125451,-3.6251 -0.443241,-0.82301 -0.867193,-1.6575 -1.270725,-2.50269 v -5.3e-4 c -0.40359,-0.84533 -0.786956,-1.70111 -1.1498,-2.56729 -0.362844,-0.86618 -0.705218,-1.74257 -1.026295,-2.62826 -0.321074,-0.8857 -0.620884,-1.78071 -0.899168,-2.68459 -0.278286,-0.90388 -0.53499,-1.81658 -0.769464,-2.7373 -0.117234,-0.46036 -0.228772,-0.92268 -0.334862,-1.387 -0.212182,-0.92864 -0.402121,-1.86512 -0.568957,-2.80861 -0.08339,-0.47158 -0.161195,-0.94503 -0.233061,-1.42007 v -5.3e-4 c -0.14378,-0.95041 -0.264321,-1.90737 -0.36122,-2.87063 -0.0969,-0.96325 -0.170113,-1.93255 -0.219106,-2.90731 -0.049,-0.97477 -0.07383,-1.95494 -0.0739,-2.93987 v -0.005 -5.3e-4 c 0,-0.008 5.29e-4,-0.0155 5.29e-4,-0.0233 5.29e-4,-1.08176 0.03095,-2.1565 0.08992,-3.22357 0.0013,-0.0232 0.0019,-0.0466 0.0031,-0.0698 v -5.3e-4 c 0.03098,-0.5487 0.06961,-1.09519 0.115756,-1.63969 v -5.3e-4 c 0.0045,-0.0538 0.01132,-0.10696 0.01601,-0.16071 0.130813,-1.49408 0.319201,-2.97146 0.561208,-4.43074 0.01373,-0.0828 0.02469,-0.16644 0.03876,-0.24908 v -5.3e-4 c 0.0167,-0.098 0.03708,-0.19469 0.05426,-0.29249 0.149039,-0.84856 0.31678,-1.69057 0.502295,-2.52594 0.02477,-0.11149 0.04643,-0.22414 0.07183,-0.33538 v -5.3e-4 c 0.118811,-0.52035 0.244533,-1.03799 0.377238,-1.55288 v -5.3e-4 c 0.132712,-0.51489 0.272703,-1.02711 0.419097,-1.53634 v -5.3e-4 c 0.146397,-0.50922 0.299532,-1.01541 0.459404,-1.51877 v -5.3e-4 c 0.159875,-0.50335 0.326575,-1.00393 0.499711,-1.5012 v -5.3e-4 c 0.06297,-0.18086 0.131662,-0.35895 0.196371,-0.53898 0.113273,-0.31516 0.224581,-0.63102 0.34313,-0.94361 0.372446,-0.98211 0.770848,-1.95164 1.194242,-2.90732 v -5.3e-4 c 0.211513,-0.47741 0.429278,-0.95111 0.65319,-1.42161 z"
       id="path1625" />
    <path
       style="display:inline;fill:#d35f5f;stroke:none;stroke-width:0.999995;stroke-linecap:square;paint-order:markers stroke fill"
       d="M 76.601431,99.762934 C 70.104703,109.12175 66.292002,120.49453 66.291465,132.76195 v 0.006 c 7.94e-4,15.68898 6.288027,30.25859 16.893026,40.89259 10.605101,10.634 25.134419,16.93902 40.779419,16.93902 h 0.003 c 11.82723,0 23.27796,-3.64579 32.86362,-10.31203 0.54903,-1.95731 0.99304,-3.94067 1.33171,-5.94176 -8.845,5.27523 -19.01575,8.1287 -29.48037,8.1287 h -0.003 c -15.575,0 -30.132633,-6.26202 -40.779938,-16.93901 C 77.251734,154.85827 71.006607,140.26104 71.005906,124.64204 v -0.006 c 5.29e-4,-8.90483 2.009976,-17.33825 5.595525,-24.872903 z"
       id="path1623" />
    <path
       style="display:inline;fill:#000000;stroke:none;stroke-width:0.999995;stroke-linecap:square;paint-order:markers stroke fill"
       d="m 86.030829,83.512247 c -6.496852,9.35863 -10.309635,20.731093 -10.310482,32.998503 v 0.006 c 5.29e-4,15.548 6.203527,30.17514 16.893026,40.89414 10.689397,10.719 25.274457,16.93902 40.780457,16.93902 h 0.003 c 8.91049,0 17.60675,-2.07179 25.45426,-5.94279 0.1291,-2.01991 0.15291,-4.04892 0.0682,-6.0787 -6.57453,2.55079 -13.62192,3.89641 -20.80752,3.89641 h -0.003 c -8.89275,0 -17.50863,-2.05736 -25.27029,-5.8534 l 0.008,0.0424 c 0,0 -0.81656,-0.44011 -1.91358,-1.04748 0.009,0.0168 0.017,0.0339 0.0258,0.0506 -1.21454,-0.6501 -2.40567,-1.34475 -3.57187,-2.08101 -1.55089,-0.9235 -2.93502,-1.81097 -3.31815,-2.26136 -2.38069,-1.74579 -4.636171,-3.67811 -6.741185,-5.78879 -10.731268,-10.7621 -16.891792,-25.41595 -16.892191,-40.89495 v -0.006 c 7.94e-4,-8.90445 2.010148,-17.338001 5.595525,-24.87238 z"
       id="path1621" />
    <path
       style="display:inline;fill:#89023e;fill-opacity:1;stroke:none;stroke-width:0.999995;stroke-linecap:square;paint-order:markers stroke fill"
       d="M 95.460745,67.261042 C 88.963798,76.619481 85.150819,87.992 85.149745,100.25903 v 0.006 c 1.98e-4,15.409 6.118706,30.09221 16.892515,40.89621 0.68738,0.68928 1.39327,1.35607 2.11201,2.00608 l 5.82238,4.63176 c 9.55345,6.63959 20.98312,10.30118 32.84709,10.30118 h 0.003 c 5.27685,-2.7e-4 10.47885,-0.72679 15.47399,-2.12236 -0.27011,-1.75813 -0.61919,-3.51053 -1.05472,-5.25084 -0.12688,-0.50712 -0.26182,-1.01144 -0.40204,-1.5136 -3.05611,0.50108 -6.1656,0.76151 -9.30227,0.76171 h -0.003 c -14.11418,0 -27.69231,-5.19118 -38.20439,-14.51487 1.2292,-13.62101 7.20647,-26.18145 16.65325,-35.654677 10.64731,-10.676996 25.20496,-16.939017 40.77994,-16.939017 h 0.003 c 15.295,0 29.96404,6.093307 40.77994,16.939535 l 0.001,5.29e-4 c 2.42366,2.43039 4.60755,5.05618 6.54017,7.83828 -2.79574,-5.86808 -6.58188,-11.276651 -11.25512,-15.962848 l -0.001,-0.0011 C 192.0206,80.834727 177.35164,74.74172 162.05564,74.741717 h -0.003 c -15.645,0 -30.17432,6.305016 -40.77942,16.939017 C 111.12735,101.85425 104.93798,115.63063 104.41988,130.54244 95.071575,119.98868 89.864183,106.3351 89.864183,92.140138 v -0.0062 c 7.94e-4,-8.904821 2.010791,-17.338404 5.59656,-24.872899 z"
       id="path1960" />
    <path
       d="m 165.30884,113.77227 a 57.674267,57.83551 62.89227 0 1 77.76251,24.98521 57.674267,57.83551 62.89227 0 1 -25.20222,77.69244 57.674267,57.83551 62.89227 0 1 -77.7625,-24.9852 57.674267,57.83551 62.89227 0 1 25.20221,-77.69245"
       style="display:inline;fill:none;stroke:none;stroke-width:0.999996;stroke-linecap:square;paint-order:markers stroke fill"
       id="path1571" />
    <path
       id="path1573"
       style="display:inline;fill:none;stroke:none;stroke-width:0.999996;stroke-linecap:square;paint-order:markers stroke fill"
       d="m 165.30884,113.77227 a 57.674267,57.83551 62.89227 0 1 77.76251,24.98521 57.674267,57.83551 62.89227 0 1 -25.20222,77.69244 57.674267,57.83551 62.89227 0 1 -77.7625,-24.9852 57.674267,57.83551 62.89227 0 1 25.20221,-77.69245" />
    <path
       d="M 162.782,165.26435 A 57.674267,57.83551 0 0 1 105.10773,223.09986 57.674267,57.83551 0 0 1 47.433459,165.26435 57.674267,57.83551 0 0 1 105.10773,107.42884 57.674267,57.83551 0 0 1 162.782,165.26435"
       style="display:inline;fill:none;stroke:none;stroke-width:0.999996;stroke-linecap:square;paint-order:markers stroke fill"
       id="ellipse1372" />
    <path
       id="path1516"
       style="display:inline;fill:none;stroke:none;stroke-width:0.999996;stroke-linecap:square;paint-order:markers stroke fill"
       d="M 162.782,165.26435 A 57.674267,57.83551 0 0 1 105.10773,223.09986 57.674267,57.83551 0 0 1 47.433459,165.26435 57.674267,57.83551 0 0 1 105.10773,107.42884 57.674267,57.83551 0 0 1 162.782,165.26435" />
    <path
       id="path1555"
       style="display:inline;fill:none;stroke:none;stroke-width:0.999996;stroke-linecap:square;paint-order:markers stroke fill"
       d="m 162.78201,165.26431 a 57.674267,57.83551 0 0 1 -57.67427,57.83551 57.674267,57.83551 0 0 1 -57.674271,-57.83551 57.674267,57.83551 0 0 1 57.674271,-57.83551 57.674267,57.83551 0 0 1 57.67427,57.83551" />
    <path
       d="m 162.78201,165.26431 a 57.674267,57.83551 0 0 1 -57.67427,57.83551 57.674267,57.83551 0 0 1 -57.674271,-57.83551 57.674267,57.83551 0 0 1 57.674271,-57.83551 57.674267,57.83551 0 0 1 57.67427,57.83551"
       style="display:inline;fill:none;stroke:none;stroke-width:0.999996;stroke-linecap:square;paint-order:markers stroke fill"
       id="path1557" />
    <path
       id="path1531"
       style="display:inline;fill:none;stroke:none;stroke-width:0.999996;stroke-linecap:square;paint-order:markers stroke fill"
       d="m 118.82788,143.15664 a 57.83551,57.674267 29.06667 0 1 -22.531704,-78.508531 57.83551,57.674267 29.06667 0 1 78.571134,-22.31242 57.83551,57.674267 29.06667 0 1 22.5317,78.508521 57.83551,57.674267 29.06667 0 1 -78.57113,22.31243" />
    <path
       d="m 118.82788,143.15664 a 57.83551,57.674267 29.06667 0 1 -22.531704,-78.508531 57.83551,57.674267 29.06667 0 1 78.571134,-22.31242 57.83551,57.674267 29.06667 0 1 22.5317,78.508521 57.83551,57.674267 29.06667 0 1 -78.57113,22.31243"
       style="display:inline;fill:none;stroke:none;stroke-width:0.999996;stroke-linecap:square;paint-order:markers stroke fill"
       id="path1533" />
    <path
       id="path1664"
       style="display:inline;fill:none;stroke:none;stroke-width:0.999996;stroke-linecap:square;paint-order:markers stroke fill"
       d="M 200.87051,100.07662 A 57.674267,57.83551 0 0 0 143.19624,42.241115 57.674267,57.83551 0 0 0 85.521968,100.07662 57.674267,57.83551 0 0 0 143.19624,157.91213 57.674267,57.83551 0 0 0 200.87051,100.07662" />
    <path
       d="M 200.87051,100.07662 A 57.674267,57.83551 0 0 0 143.19624,42.241115 57.674267,57.83551 0 0 0 85.521968,100.07662 57.674267,57.83551 0 0 0 143.19624,157.91213 57.674267,57.83551 0 0 0 200.87051,100.07662"
       style="display:inline;fill:none;stroke:none;stroke-width:0.999996;stroke-linecap:square;paint-order:markers stroke fill"
       id="path1666" />
    <path
       d="m 155.98145,215.34862 a 57.83551,57.674267 31.031896 0 0 79.29008,-19.60487 57.83551,57.674267 31.031896 0 0 -19.82616,-79.23504 57.83551,57.674267 31.031896 0 0 -79.29007,19.60487 57.83551,57.674267 31.031896 0 0 19.82615,79.23504"
       style="display:inline;fill:none;stroke:none;stroke-width:0.999996;stroke-linecap:square;paint-order:markers stroke fill"
       id="path1696" />
    <path
       id="path1698"
       style="display:inline;fill:none;stroke:none;stroke-width:0.999996;stroke-linecap:square;paint-order:markers stroke fill"
       d="m 155.98145,215.34862 a 57.83551,57.674267 31.031896 0 0 79.29008,-19.60487 57.83551,57.674267 31.031896 0 0 -19.82616,-79.23504 57.83551,57.674267 31.031896 0 0 -79.29007,19.60487 57.83551,57.674267 31.031896 0 0 19.82615,79.23504" />
  </g>
  <g
     style="display:none"
     inkscape:label="Layer 1"
     inkscape:groupmode="layer"
     id="layer1" />
  <g
     style="display:none"
     inkscape:label="Layer 2"
     id="layer2"
     inkscape:groupmode="layer" />
</svg>
