<?xml version="1.0" encoding="UTF-8" standalone="no"?>
<svg
   xmlns:dc="http://purl.org/dc/elements/1.1/"
   xmlns:cc="http://creativecommons.org/ns#"
   xmlns:rdf="http://www.w3.org/1999/02/22-rdf-syntax-ns#"
   xmlns:svg="http://www.w3.org/2000/svg"
   xmlns="http://www.w3.org/2000/svg"
   xmlns:sodipodi="http://sodipodi.sourceforge.net/DTD/sodipodi-0.dtd"
   xmlns:inkscape="http://www.inkscape.org/namespaces/inkscape"
   sodipodi:docname="i.svg"
   inkscape:version="1.0 (4035a4f, 2020-05-01)"
   id="svg8"
   version="1.1"
   viewBox="0 0 317.5 317.50001"
   height="1200"
   width="1200">
  <defs
     id="defs2" />
  <sodipodi:namedview
     inkscape:window-maximized="0"
     inkscape:window-y="0"
     inkscape:window-x="0"
     inkscape:window-height="1120"
     inkscape:window-width="1792"
     inkscape:bbox-paths="false"
     inkscape:snap-bbox-edge-midpoints="true"
     inkscape:snap-bbox-midpoints="false"
     inkscape:bbox-nodes="true"
     inkscape:snap-bbox="true"
     units="px"
     showgrid="false"
     inkscape:document-rotation="0"
     inkscape:current-layer="layer1"
     inkscape:document-units="mm"
     inkscape:cy="600"
     inkscape:cx="533.34071"
     inkscape:zoom="0.49505478"
     inkscape:pageshadow="2"
     inkscape:pageopacity="0.0"
     borderopacity="1.0"
     bordercolor="#666666"
     pagecolor="#ffffff"
     id="base" />
  <metadata
     id="metadata5">
    <rdf:RDF>
      <cc:Work
         rdf:about="">
        <dc:format>image/svg+xml</dc:format>
        <dc:type
           rdf:resource="http://purl.org/dc/dcmitype/StillImage" />
        <dc:title></dc:title>
      </cc:Work>
    </rdf:RDF>
  </metadata>
  <g
     id="layer1"
     inkscape:groupmode="layer"
     inkscape:label="Layer 1">
    <g
       transform="translate(21.752158,2.6899049)"
       id="g108">
      <path
         id="path88"
         style="fill:#800000;stroke-width:0.999999"
         d="m 170.35352,973.62891 a 142.74275,146.88023 0 0 1 -0.9961,-0.002 142.74275,146.88023 0 0 1 -0.99804,-0.0117 142.74275,146.88023 0 0 1 -0.99805,-0.0176 142.74275,146.88023 0 0 1 -0.9961,-0.0254 142.74275,146.88023 0 0 1 -0.99804,-0.0332 142.74275,146.88023 0 0 1 -0.9961,-0.0391 142.74275,146.88023 0 0 1 -0.75195,-0.0352 v 0.16407 z"
         transform="scale(0.26458333)" />
      <path
         id="path84"
         style="fill:#800000;stroke-width:0.53447"
         d="m 121.32049,93.68235 a 37.767352,158.5803 0 0 1 -5.1e-4,1.107065 37.767352,158.5803 0 0 1 -0.003,1.109187 37.767352,158.5803 0 0 1 -0.005,1.107065 37.767352,158.5803 0 0 1 -0.006,1.107066 37.767352,158.5803 0 0 1 -0.008,1.109187 37.767352,158.5803 0 0 1 -0.0103,1.10707 37.767352,158.5803 0 0 1 -0.0119,1.10706 37.767352,158.5803 0 0 1 -0.014,1.10498 37.767352,158.5803 0 0 1 -0.0155,1.10707 37.767352,158.5803 0 0 1 -0.0176,1.10498 37.767352,158.5803 0 0 1 -0.0191,1.10495 37.767352,158.5803 0 0 1 -0.0212,1.10494 37.767352,158.5803 0 0 1 -0.0232,1.10286 37.767352,158.5803 0 0 1 -0.0248,1.10495 37.767352,158.5803 0 0 1 -0.0269,1.10078 37.767352,158.5803 0 0 1 -0.0284,1.10282 37.767352,158.5803 0 0 1 -0.0305,1.10078 37.767352,158.5803 0 0 1 -0.032,1.09862 37.767352,158.5803 0 0 1 -0.0341,1.09862 37.767352,158.5803 0 0 1 -0.0356,1.09866 37.767352,158.5803 0 0 1 -0.0377,1.09653 37.767352,158.5803 0 0 1 -0.0393,1.0965 37.767352,158.5803 0 0 1 -0.0413,1.09442 37.767352,158.5803 0 0 1 -0.0434,1.09233 37.767352,158.5803 0 0 1 -0.045,1.09229 37.767352,158.5803 0 0 1 -0.0465,1.09022 37.767352,158.5803 0 0 1 -0.0486,1.08809 37.767352,158.5803 0 0 1 -0.0506,1.08809 37.767352,158.5803 0 0 1 -0.0522,1.08596 37.767352,158.5803 0 0 1 -0.0537,1.08601 37.767352,158.5803 0 0 1 -0.0558,1.08177 37.767352,158.5803 0 0 1 -0.0579,1.08177 37.767352,158.5803 0 0 1 -0.0594,1.07964 37.767352,158.5803 0 0 1 -0.061,1.07756 37.767352,158.5803 0 0 1 -0.063,1.07752 37.767352,158.5803 0 0 1 -0.0651,1.07336 37.767352,158.5803 0 0 1 -0.0661,1.0712 37.767352,158.5803 0 0 1 -0.0687,1.07124 37.767352,158.5803 0 0 1 -0.0698,1.06911 37.767352,158.5803 0 0 1 -0.0724,1.06487 37.767352,158.5803 0 0 1 -0.0734,1.06492 37.767352,158.5803 0 0 1 -0.0755,1.06067 37.767352,158.5803 0 0 1 -0.0775,1.06067 37.767352,158.5803 0 0 1 -0.0791,1.05646 37.767352,158.5803 0 0 1 -0.0806,1.05439 37.767352,158.5803 0 0 1 -0.0822,1.05222 37.767352,158.5803 0 0 1 -0.0842,1.05014 37.767352,158.5803 0 0 1 -0.0863,1.04802 37.767352,158.5803 0 0 1 -0.0878,1.04594 37.767352,158.5803 0 0 1 -0.0894,1.04169 37.767352,158.5803 0 0 1 -0.0909,1.03957 37.767352,158.5803 0 0 1 -0.093,1.03749 37.767352,158.5803 0 0 1 -0.0946,1.03537 37.767352,158.5803 0 0 1 -0.0966,1.03117 37.767352,158.5803 0 0 1 -0.0977,1.02904 37.767352,158.5803 0 0 1 -0.10025,1.02484 37.767352,158.5803 0 0 1 -0.10129,1.02272 37.767352,158.5803 0 0 1 -0.10335,1.0206 37.767352,158.5803 0 0 1 -0.1049,1.0164 37.767352,158.5803 0 0 1 -0.10646,1.01431 37.767352,158.5803 0 0 1 -0.108,1.01007 37.767352,158.5803 0 0 1 -0.11007,1.00795 37.767352,158.5803 0 0 1 -0.11162,1.00374 37.767352,158.5803 0 0 1 -0.11317,0.99954 37.767352,158.5803 0 0 1 -0.11524,0.99742 37.767352,158.5803 0 0 1 -0.11679,0.9953 37.767352,158.5803 0 0 1 -0.11782,0.98897 37.767352,158.5803 0 0 1 -0.11989,0.98898 37.767352,158.5803 0 0 1 -0.12196,0.98268 37.767352,158.5803 0 0 1 -0.12299,0.98053 37.767352,158.5803 0 0 1 -0.12454,0.97636 37.767352,158.5803 0 0 1 -0.12661,0.97208 37.767352,158.5803 0 0 1 -0.12816,0.96792 37.767352,158.5803 0 0 1 -0.1297,0.96575 37.767352,158.5803 0 0 1 -0.13126,0.9616 37.767352,158.5803 0 0 1 -0.13281,0.95734 37.767352,158.5803 0 0 1 -0.13436,0.95315 37.767352,158.5803 0 0 1 -0.13591,0.9489 37.767352,158.5803 0 0 1 -0.13797,0.94682 37.767352,158.5803 0 0 1 -0.13901,0.9405 37.767352,158.5803 0 0 1 -0.14056,0.93837 37.767352,158.5803 0 0 1 -0.14263,0.93205 37.767352,158.5803 0 0 1 -0.14366,0.92993 37.767352,158.5803 0 0 1 -0.14521,0.9236 37.767352,158.5803 0 0 1 -0.14676,0.92152 37.767352,158.5803 0 0 1 -0.14883,0.91515 37.767352,158.5803 0 0 1 -0.14986,0.91308 37.767352,158.5803 0 0 1 -0.15141,0.90675 37.767352,158.5803 0 0 1 -0.15297,0.90254 37.767352,158.5803 0 0 1 -0.15451,0.8983 37.767352,158.5803 0 0 1 -0.15606,0.8941 37.767352,158.5803 0 0 1 -0.15761,0.88986 37.767352,158.5803 0 0 1 -0.15865,0.88353 37.767352,158.5803 0 0 1 -0.16072,0.88145 37.767352,158.5803 0 0 1 -0.16174,0.87512 37.767352,158.5803 0 0 1 -0.1633,0.8688 37.767352,158.5803 0 0 1 -0.16485,0.86668 37.767352,158.5803 0 0 1 -0.16588,0.86035 37.767352,158.5803 0 0 1 -0.16795,0.85611 37.767352,158.5803 0 0 1 -0.16898,0.84982 37.767352,158.5803 0 0 1 -0.17053,0.84771 37.767352,158.5803 0 0 1 -0.17157,0.83925 37.767352,158.5803 0 0 1 -0.17363,0.83718 37.767352,158.5803 0 0 1 -0.17415,0.83081 37.767352,158.5803 0 0 1 -0.17622,0.82448 37.767352,158.5803 0 0 1 -0.17725,0.82032 37.767352,158.5803 0 0 1 -0.1788,0.81608 37.767352,158.5803 0 0 1 -0.18035,0.80971 37.767352,158.5803 0 0 1 -0.18138,0.80343 37.767352,158.5803 0 0 1 -0.18294,0.79919 37.767352,158.5803 0 0 1 -0.18397,0.79498 37.767352,158.5803 0 0 1 -0.18551,0.78865 37.767352,158.5803 0 0 1 -0.18656,0.78233 37.767352,158.5803 0 0 1 -0.1881,0.77813 37.767352,158.5803 0 0 1 -0.18913,0.77181 37.767352,158.5803 0 0 1 -0.19069,0.76543 37.767352,158.5803 0 0 1 -0.19172,0.76124 37.767352,158.5803 0 0 1 -0.19327,0.75491 37.767352,158.5803 0 0 1 -0.1943,0.75071 37.767352,158.5803 0 0 1 -0.19586,0.74226 37.767352,158.5803 0 0 1 -0.19688,0.73805 37.767352,158.5803 0 0 1 -0.19792,0.73174 37.767352,158.5803 0 0 1 -0.19947,0.72748 37.767352,158.5803 0 0 1 -0.20051,0.71909 37.767352,158.5803 0 0 1 -0.20154,0.71484 37.767352,158.5803 0 0 1 -0.20308,0.70851 37.767352,158.5803 0 0 1 -0.20413,0.70431 37.767352,158.5803 0 0 1 -0.20515,0.6959 37.767352,158.5803 0 0 1 -0.20619,0.68954 37.767352,158.5803 0 0 1 -0.20774,0.6853 37.767352,158.5803 0 0 1 -0.20826,0.67901 37.767352,158.5803 0 0 1 -0.2098,0.67268 37.767352,158.5803 0 0 1 -0.21084,0.66637 37.767352,158.5803 0 0 1 -0.21239,0.66003 37.767352,158.5803 0 0 1 -0.21291,0.65367 37.767352,158.5803 0 0 1 -0.21394,0.64739 37.767352,158.5803 0 0 1 -0.21549,0.64106 37.767352,158.5803 0 0 1 -0.21601,0.6347 37.767352,158.5803 0 0 1 -0.21756,0.62841 37.767352,158.5803 0 0 1 -0.21859,0.62204 37.767352,158.5803 0 0 1 -0.21911,0.61576 37.767352,158.5803 0 0 1 -0.22065,0.60732 37.767352,158.5803 0 0 1 -0.22118,0.60307 37.767352,158.5803 0 0 1 -0.22272,0.59675 37.767352,158.5803 0 0 1 -0.22325,0.59046 37.767352,158.5803 0 0 1 -0.22427,0.58201 37.767352,158.5803 0 0 1 -0.22583,0.57565 37.767352,158.5803 0 0 1 -0.22634,0.57149 37.767352,158.5803 0 0 1 -0.22686,0.563 37.767352,158.5803 0 0 1 -0.22841,0.55672 37.767352,158.5803 0 0 1 -0.22893,0.54826 37.767352,158.5803 0 0 1 -0.22996,0.54403 37.767352,158.5803 0 0 1 -0.23099,0.53562 37.767352,158.5803 0 0 1 -0.23203,0.52929 37.767352,158.5803 0 0 1 -0.23254,0.52293 37.767352,158.5803 0 0 1 -0.23358,0.51664 37.767352,158.5803 0 0 1 -0.23461,0.5082 37.767352,158.5803 0 0 1 -0.23513,0.50187 37.767352,158.5803 0 0 1 -0.23616,0.49555 37.767352,158.5803 0 0 1 -0.23668,0.48922 37.767352,158.5803 0 0 1 -0.237708,0.48078 37.767352,158.5803 0 0 1 -0.238747,0.47449 37.767352,158.5803 0 0 1 -0.23926,0.466 37.767352,158.5803 0 0 1 -0.239779,0.46181 37.767352,158.5803 0 0 1 -0.240813,0.45339 37.767352,158.5803 0 0 1 -0.241845,0.44491 37.767352,158.5803 0 0 1 -0.242364,0.43862 37.767352,158.5803 0 0 1 -0.242879,0.4323 37.767352,158.5803 0 0 1 -0.243912,0.42593 37.767352,158.5803 0 0 1 -0.24443,0.41753 37.767352,158.5803 0 0 1 -0.244946,0.40908 37.767352,158.5803 0 0 1 -0.24598,0.40479 37.767352,158.5803 0 0 1 -0.246497,0.39419 37.767352,158.5803 0 0 1 -0.247012,0.3901 37.767352,158.5803 0 0 1 -0.247531,0.38154 37.767352,158.5803 0 0 1 -0.248563,0.37337 37.767352,158.5803 0 0 1 -0.249081,0.36685 37.767352,158.5803 0 0 1 -0.249597,0.36072 37.767352,158.5803 0 0 1 -0.250114,0.35216 37.767352,158.5803 0 0 1 -0.250631,0.34358 37.767352,158.5803 0 0 1 -0.251664,0.33747 37.767352,158.5803 0 0 1 -0.251664,0.33093 37.767352,158.5803 0 0 1 -0.252698,0.32278 37.767352,158.5803 0 0 1 -0.252698,0.31625 37.767352,158.5803 0 0 1 -0.253731,0.30767 37.767352,158.5803 0 0 1 -0.253732,0.29952 37.767352,158.5803 0 0 1 -0.254765,0.29298 37.767352,158.5803 0 0 1 -0.254765,0.28687 37.767352,158.5803 0 0 1 -0.255796,0.27626 37.767352,158.5803 0 0 1 -0.255799,0.27217 37.767352,158.5803 0 0 1 -0.256315,0.26157 37.767352,158.5803 0 0 1 -0.256831,0.25708 37.767352,158.5803 0 0 1 -0.256834,0.24687 37.767352,158.5803 0 0 1 -0.257866,0.24035 37.767352,158.5803 0 0 1 -0.257865,0.23423 37.767352,158.5803 0 0 1 -0.258382,0.22361 37.767352,158.5803 0 0 1 -0.258897,0.21954 37.767352,158.5803 0 0 1 -0.2589,0.20892 37.767352,158.5803 0 0 1 -0.259416,0.2024 37.767352,158.5803 0 0 1 -0.259932,0.19628 37.767352,158.5803 0 0 1 -0.259932,0.18771 37.767352,158.5803 0 0 1 -0.260451,0.17913 37.767352,158.5803 0 0 1 -0.260966,0.17098 37.767352,158.5803 0 0 1 -0.260964,0.16445 37.767352,158.5803 0 0 1 -0.260966,0.15792 37.767352,158.5803 0 0 1 -0.261483,0.14771 37.767352,158.5803 0 0 1 -0.262001,0.14119 37.767352,158.5803 0 0 1 -0.261998,0.13507 37.767352,158.5803 0 0 1 -0.262001,0.12446 37.767352,158.5803 0 0 1 -0.262514,0.11793 37.767352,158.5803 0 0 1 -0.262517,0.11181 37.767352,158.5803 0 0 1 -0.263033,0.10324 37.767352,158.5803 0 0 1 -0.262517,0.0951 37.767352,158.5803 0 0 1 -0.263549,0.0865 37.767352,158.5803 0 0 1 -0.263033,0.08 37.767352,158.5803 0 0 1 -0.263033,0.0718 37.767352,158.5803 0 0 1 -0.263551,0.0653 37.767352,158.5803 0 0 1 -0.263549,0.0547 37.767352,158.5803 0 0 1 -0.263552,0.0506 37.767352,158.5803 0 0 1 -0.264064,0.0408 37.767352,158.5803 0 0 1 -0.263552,0.0326 37.767352,158.5803 0 0 1 -0.264064,0.0245 37.767352,158.5803 0 0 1 -0.263552,0.0163 37.767352,158.5803 0 0 1 -0.264065,0.0122 37.767352,158.5803 0 0 1 -0.211873,0.002 h 37.767199 z" />
      <rect
         style="fill:#ff0000;stroke-width:0.264583"
         id="rect91"
         width="39.549496"
         height="156.59462"
         x="121.32093"
         y="95.666901" />
      <path
         d="m 160.87087,94.751255 a 37.767352,157.51139 0 0 0 5.1e-4,1.099603 37.767352,157.51139 0 0 0 0.003,1.101711 37.767352,157.51139 0 0 0 0.005,1.099603 37.767352,157.51139 0 0 0 0.006,1.099603 37.767352,157.51139 0 0 0 0.008,1.101715 37.767352,157.51139 0 0 0 0.0103,1.0996 37.767352,157.51139 0 0 0 0.0119,1.0996 37.767352,157.51139 0 0 0 0.014,1.09754 37.767352,157.51139 0 0 0 0.0155,1.0996 37.767352,157.51139 0 0 0 0.0176,1.09754 37.767352,157.51139 0 0 0 0.0191,1.09749 37.767352,157.51139 0 0 0 0.0212,1.0975 37.767352,157.51139 0 0 0 0.0232,1.09543 37.767352,157.51139 0 0 0 0.0248,1.09749 37.767352,157.51139 0 0 0 0.0269,1.09336 37.767352,157.51139 0 0 0 0.0284,1.09539 37.767352,157.51139 0 0 0 0.0305,1.09336 37.767352,157.51139 0 0 0 0.032,1.09122 37.767352,157.51139 0 0 0 0.0341,1.09121 37.767352,157.51139 0 0 0 0.0356,1.09125 37.767352,157.51139 0 0 0 0.0377,1.08915 37.767352,157.51139 0 0 0 0.0393,1.0891 37.767352,157.51139 0 0 0 0.0413,1.08704 37.767352,157.51139 0 0 0 0.0434,1.08497 37.767352,157.51139 0 0 0 0.045,1.08493 37.767352,157.51139 0 0 0 0.0465,1.08287 37.767352,157.51139 0 0 0 0.0486,1.08075 37.767352,157.51139 0 0 0 0.0506,1.08076 37.767352,157.51139 0 0 0 0.0522,1.07865 37.767352,157.51139 0 0 0 0.0537,1.07869 37.767352,157.51139 0 0 0 0.0558,1.07447 37.767352,157.51139 0 0 0 0.0579,1.07448 37.767352,157.51139 0 0 0 0.0594,1.07236 37.767352,157.51139 0 0 0 0.061,1.0703 37.767352,157.51139 0 0 0 0.063,1.07026 37.767352,157.51139 0 0 0 0.0651,1.06612 37.767352,157.51139 0 0 0 0.0661,1.06398 37.767352,157.51139 0 0 0 0.0687,1.06402 37.767352,157.51139 0 0 0 0.0698,1.06191 37.767352,157.51139 0 0 0 0.0724,1.05769 37.767352,157.51139 0 0 0 0.0734,1.05774 37.767352,157.51139 0 0 0 0.0755,1.05352 37.767352,157.51139 0 0 0 0.0775,1.05351 37.767352,157.51139 0 0 0 0.0791,1.04935 37.767352,157.51139 0 0 0 0.0806,1.04728 37.767352,157.51139 0 0 0 0.0822,1.04513 37.767352,157.51139 0 0 0 0.0842,1.04306 37.767352,157.51139 0 0 0 0.0863,1.04095 37.767352,157.51139 0 0 0 0.0878,1.03889 37.767352,157.51139 0 0 0 0.0894,1.03467 37.767352,157.51139 0 0 0 0.0909,1.03257 37.767352,157.51139 0 0 0 0.093,1.0305 37.767352,157.51139 0 0 0 0.0946,1.02839 37.767352,157.51139 0 0 0 0.0966,1.02421 37.767352,157.51139 0 0 0 0.0977,1.02211 37.767352,157.51139 0 0 0 0.10025,1.01793 37.767352,157.51139 0 0 0 0.10129,1.01583 37.767352,157.51139 0 0 0 0.10335,1.01372 37.767352,157.51139 0 0 0 0.1049,1.00954 37.767352,157.51139 0 0 0 0.10646,1.00748 37.767352,157.51139 0 0 0 0.108,1.00326 37.767352,157.51139 0 0 0 0.11007,1.00115 37.767352,157.51139 0 0 0 0.11162,0.99698 37.767352,157.51139 0 0 0 0.11317,0.99281 37.767352,157.51139 0 0 0 0.11524,0.99069 37.767352,157.51139 0 0 0 0.11679,0.98859 37.767352,157.51139 0 0 0 0.11782,0.98231 37.767352,157.51139 0 0 0 0.11989,0.9823 37.767352,157.51139 0 0 0 0.12196,0.97607 37.767352,157.51139 0 0 0 0.12299,0.97392 37.767352,157.51139 0 0 0 0.12454,0.96978 37.767352,157.51139 0 0 0 0.12661,0.96553 37.767352,157.51139 0 0 0 0.12816,0.96139 37.767352,157.51139 0 0 0 0.1297,0.95924 37.767352,157.51139 0 0 0 0.13126,0.95511 37.767352,157.51139 0 0 0 0.13281,0.9509 37.767352,157.51139 0 0 0 0.13436,0.94672 37.767352,157.51139 0 0 0 0.13591,0.9425 37.767352,157.51139 0 0 0 0.13797,0.94044 37.767352,157.51139 0 0 0 0.13901,0.93416 37.767352,157.51139 0 0 0 0.14056,0.93205 37.767352,157.51139 0 0 0 0.14263,0.92576 37.767352,157.51139 0 0 0 0.14366,0.92366 37.767352,157.51139 0 0 0 0.14521,0.91738 37.767352,157.51139 0 0 0 0.14676,0.91531 37.767352,157.51139 0 0 0 0.14883,0.90898 37.767352,157.51139 0 0 0 0.14986,0.90692 37.767352,157.51139 0 0 0 0.15141,0.90064 37.767352,157.51139 0 0 0 0.15297,0.89646 37.767352,157.51139 0 0 0 0.15451,0.89225 37.767352,157.51139 0 0 0 0.15606,0.88807 37.767352,157.51139 0 0 0 0.15761,0.88386 37.767352,157.51139 0 0 0 0.15865,0.87757 37.767352,157.51139 0 0 0 0.16072,0.87551 37.767352,157.51139 0 0 0 0.16174,0.86923 37.767352,157.51139 0 0 0 0.1633,0.86294 37.767352,157.51139 0 0 0 0.16485,0.86083 37.767352,157.51139 0 0 0 0.16588,0.85456 37.767352,157.51139 0 0 0 0.16795,0.85034 37.767352,157.51139 0 0 0 0.16898,0.84409 37.767352,157.51139 0 0 0 0.17053,0.84199 37.767352,157.51139 0 0 0 0.17157,0.8336 37.767352,157.51139 0 0 0 0.17363,0.83153 37.767352,157.51139 0 0 0 0.17415,0.82521 37.767352,157.51139 0 0 0 0.17622,0.81893 37.767352,157.51139 0 0 0 0.17725,0.81479 37.767352,157.51139 0 0 0 0.1788,0.81058 37.767352,157.51139 0 0 0 0.18035,0.80425 37.767352,157.51139 0 0 0 0.18138,0.79801 37.767352,157.51139 0 0 0 0.18294,0.7938 37.767352,157.51139 0 0 0 0.18397,0.78962 37.767352,157.51139 0 0 0 0.18551,0.78335 37.767352,157.51139 0 0 0 0.18656,0.77705 37.767352,157.51139 0 0 0 0.1881,0.77289 37.767352,157.51139 0 0 0 0.18913,0.7666 37.767352,157.51139 0 0 0 0.19069,0.76028 37.767352,157.51139 0 0 0 0.19172,0.7561 37.767352,157.51139 0 0 0 0.19327,0.74982 37.767352,157.51139 0 0 0 0.1943,0.74565 37.767352,157.51139 0 0 0 0.19586,0.73726 37.767352,157.51139 0 0 0 0.19688,0.73308 37.767352,157.51139 0 0 0 0.19792,0.7268 37.767352,157.51139 0 0 0 0.19947,0.72258 37.767352,157.51139 0 0 0 0.20051,0.71424 37.767352,157.51139 0 0 0 0.20154,0.71002 37.767352,157.51139 0 0 0 0.20308,0.70374 37.767352,157.51139 0 0 0 0.20413,0.69956 37.767352,157.51139 0 0 0 0.20515,0.69121 37.767352,157.51139 0 0 0 0.20619,0.68489 37.767352,157.51139 0 0 0 0.20774,0.68068 37.767352,157.51139 0 0 0 0.20826,0.67443 37.767352,157.51139 0 0 0 0.2098,0.66816 37.767352,157.51139 0 0 0 0.21084,0.66186 37.767352,157.51139 0 0 0 0.21239,0.65559 37.767352,157.51139 0 0 0 0.21291,0.64927 37.767352,157.51139 0 0 0 0.21394,0.64302 37.767352,157.51139 0 0 0 0.21549,0.63674 37.767352,157.51139 0 0 0 0.21601,0.63042 37.767352,157.51139 0 0 0 0.21756,0.62417 37.767352,157.51139 0 0 0 0.21859,0.61786 37.767352,157.51139 0 0 0 0.21911,0.61161 37.767352,157.51139 0 0 0 0.22065,0.60322 37.767352,157.51139 0 0 0 0.22118,0.599 37.767352,157.51139 0 0 0 0.22272,0.59273 37.767352,157.51139 0 0 0 0.22325,0.58648 37.767352,157.51139 0 0 0 0.22427,0.57809 37.767352,157.51139 0 0 0 0.22583,0.57177 37.767352,157.51139 0 0 0 0.22634,0.56764 37.767352,157.51139 0 0 0 0.22686,0.5592 37.767352,157.51139 0 0 0 0.22841,0.55296 37.767352,157.51139 0 0 0 0.22893,0.54458 37.767352,157.51139 0 0 0 0.22996,0.54035 37.767352,157.51139 0 0 0 0.23099,0.53201 37.767352,157.51139 0 0 0 0.23203,0.52573 37.767352,157.51139 0 0 0 0.23254,0.5194 37.767352,157.51139 0 0 0 0.23358,0.51316 37.767352,157.51139 0 0 0 0.23461,0.50478 37.767352,157.51139 0 0 0 0.23513,0.49849 37.767352,157.51139 0 0 0 0.23616,0.4922 37.767352,157.51139 0 0 0 0.23668,0.48593 37.767352,157.51139 0 0 0 0.23771,0.47753 37.767352,157.51139 0 0 0 0.23875,0.4713 37.767352,157.51139 0 0 0 0.23926,0.46286 37.767352,157.51139 0 0 0 0.23977,0.45869 37.767352,157.51139 0 0 0 0.24082,0.45033 37.767352,157.51139 0 0 0 0.24184,0.44191 37.767352,157.51139 0 0 0 0.24237,0.43567 37.767352,157.51139 0 0 0 0.24288,0.42938 37.767352,157.51139 0 0 0 0.24391,0.42307 37.767352,157.51139 0 0 0 0.24443,0.41471 37.767352,157.51139 0 0 0 0.24494,0.40632 37.767352,157.51139 0 0 0 0.24598,0.40207 37.767352,157.51139 0 0 0 0.2465,0.39152 37.767352,157.51139 0 0 0 0.24701,0.38748 37.767352,157.51139 0 0 0 0.24753,0.37896 37.767352,157.51139 0 0 0 0.24857,0.37086 37.767352,157.51139 0 0 0 0.24908,0.36437 37.767352,157.51139 0 0 0 0.24959,0.3583 37.767352,157.51139 0 0 0 0.25012,0.34978 37.767352,157.51139 0 0 0 0.25063,0.34127 37.767352,157.51139 0 0 0 0.25166,0.33519 37.767352,157.51139 0 0 0 0.25167,0.3287 37.767352,157.51139 0 0 0 0.2527,0.3206 37.767352,157.51139 0 0 0 0.25269,0.31412 37.767352,157.51139 0 0 0 0.25373,0.3056 37.767352,157.51139 0 0 0 0.25374,0.2975 37.767352,157.51139 0 0 0 0.25476,0.29101 37.767352,157.51139 0 0 0 0.25477,0.28493 37.767352,157.51139 0 0 0 0.25579,0.2744 37.767352,157.51139 0 0 0 0.2558,0.27034 37.767352,157.51139 0 0 0 0.25632,0.2598 37.767352,157.51139 0 0 0 0.25683,0.25534 37.767352,157.51139 0 0 0 0.25683,0.24522 37.767352,157.51139 0 0 0 0.25787,0.23872 37.767352,157.51139 0 0 0 0.25786,0.23265 37.767352,157.51139 0 0 0 0.25838,0.22211 37.767352,157.51139 0 0 0 0.2589,0.21806 37.767352,157.51139 0 0 0 0.2589,0.20751 37.767352,157.51139 0 0 0 0.25942,0.20104 37.767352,157.51139 0 0 0 0.25993,0.19495 37.767352,157.51139 0 0 0 0.25993,0.18644 37.767352,157.51139 0 0 0 0.26045,0.17793 37.767352,157.51139 0 0 0 0.26097,0.16983 37.767352,157.51139 0 0 0 0.26096,0.16334 37.767352,157.51139 0 0 0 0.26097,0.15685 37.767352,157.51139 0 0 0 0.26148,0.14672 37.767352,157.51139 0 0 0 0.262,0.14024 37.767352,157.51139 0 0 0 0.262,0.13416 37.767352,157.51139 0 0 0 0.262,0.12362 37.767352,157.51139 0 0 0 0.26252,0.11713 37.767352,157.51139 0 0 0 0.26251,0.11106 37.767352,157.51139 0 0 0 0.26304,0.10254 37.767352,157.51139 0 0 0 0.26251,0.0944 37.767352,157.51139 0 0 0 0.26355,0.0859 37.767352,157.51139 0 0 0 0.26303,0.0794 37.767352,157.51139 0 0 0 0.26304,0.0713 37.767352,157.51139 0 0 0 0.26355,0.0649 37.767352,157.51139 0 0 0 0.26355,0.0543 37.767352,157.51139 0 0 0 0.26355,0.0503 37.767352,157.51139 0 0 0 0.26406,0.0405 37.767352,157.51139 0 0 0 0.26356,0.0324 37.767352,157.51139 0 0 0 0.26406,0.0243 37.767352,157.51139 0 0 0 0.26355,0.0162 37.767352,157.51139 0 0 0 0.26407,0.0122 37.767352,157.51139 0 0 0 0.21187,0.002 h -37.7672 z"
         style="fill:#800000;stroke-width:0.532666"
         id="path93" />
      <circle
         style="fill:#800000;stroke-width:0.552512"
         id="path101"
         cx="141.09567"
         cy="70.280518"
         r="18.973068" />
    </g>
  </g>
</svg>
