<?xml version="1.0" encoding="UTF-8" standalone="no"?>
<svg
   xmlns:dc="http://purl.org/dc/elements/1.1/"
   xmlns:cc="http://creativecommons.org/ns#"
   xmlns:rdf="http://www.w3.org/1999/02/22-rdf-syntax-ns#"
   xmlns:svg="http://www.w3.org/2000/svg"
   xmlns="http://www.w3.org/2000/svg"
   xmlns:sodipodi="http://sodipodi.sourceforge.net/DTD/sodipodi-0.dtd"
   xmlns:inkscape="http://www.inkscape.org/namespaces/inkscape"
   sodipodi:docname="logo1.svg"
   inkscape:version="1.0 (4035a4f, 2020-05-01)"
   id="svg8"
   version="1.1"
   viewBox="0 0 285.74999 285.75001"
   height="1080"
   width="1080">
  <defs
     id="defs2" />
  <sodipodi:namedview
     inkscape:window-maximized="0"
     inkscape:window-y="23"
     inkscape:window-x="0"
     inkscape:window-height="943"
     inkscape:window-width="1252"
     showguides="true"
     inkscape:snap-global="true"
     units="px"
     showgrid="false"
     inkscape:document-rotation="0"
     inkscape:current-layer="layer1"
     inkscape:document-units="mm"
     inkscape:cy="649.22891"
     inkscape:cx="502.96903"
     inkscape:zoom="0.56292541"
     inkscape:pageshadow="2"
     inkscape:pageopacity="0.0"
     borderopacity="1.0"
     bordercolor="#666666"
     pagecolor="#ffffff"
     id="base" />
  <metadata
     id="metadata5">
    <rdf:RDF>
      <cc:Work
         rdf:about="">
        <dc:format>image/svg+xml</dc:format>
        <dc:type
           rdf:resource="http://purl.org/dc/dcmitype/StillImage" />
        <dc:title></dc:title>
      </cc:Work>
    </rdf:RDF>
  </metadata>
  <g
     id="layer1"
     inkscape:groupmode="layer"
     inkscape:label="Layer 1">
    <path
       transform="scale(0.26458333)"
       d="M 168.55734 429.0909 L 892.87805 429.0909 C 928.17022 429.0909 956.58236 456.42898 956.58236 490.38709 L 956.58236 929.16174 C 956.58236 963.11985 928.17022 990.45793 892.87805 990.45793 L 168.55734 990.45793 C 133.26516 990.45793 104.85304 963.11985 104.85304 929.16174 L 104.85304 490.38709 C 104.85304 456.42898 133.26516 429.0909 168.55734 429.0909 z "
       style="opacity:1;fill:none;fill-rule:evenodd;stroke-width:3;stroke-linecap:round;stroke-linejoin:bevel;stroke-dashoffset:9"
       id="rect967" />
    <path
       sodipodi:nodetypes="ssccccccccccscccccccscsscccssccsascssccccccccccccssc"
       d="m 143.2547,28.566599 c -1.98883,0.147265 -5.22384,5.990103 -3.71036,8.649084 0.68639,1.205869 1.46333,2.320907 2.16679,3.554305 l 84.48425,148.139792 c 8.74182,17.83565 -12.36221,9.07717 -18.19114,-0.50436 0,0 -51.62555,-90.062593 -77.74874,-135.028448 -1.48572,-2.556894 -5.8783,5.118915 -4.42092,7.692035 20.64975,36.457924 73.06737,128.205613 73.06737,128.205613 8.31689,17.10153 -12.39849,9.01521 -17.98701,-0.1509 0,0 -39.34035,-69.24306 -64.39039,-111.856217 -0.86802,-1.861339 -1.53963,-2.392908 -2.11718,-1.649514 0,0 -72.929482,126.736681 -103.007662,179.390601 -1.5421814,2.70045 7.498629,3.10764 9.329663,-0.0222 0.700625,-1.19767 1.277239,-2.42783 1.99316,-3.65404 L 108.71263,104.06173 c 11.06845,-16.493001 14.04496,6.16114 8.66562,16.00213 0,0 -52.146672,89.76224 -78.008156,134.8791 -1.470435,2.56571 7.373153,2.52813 8.87181,-0.0212 21.233818,-36.12084 74.443516,-127.41185 74.443516,-127.41185 10.64542,-15.7578 14.00867,6.22421 8.86871,15.64918 0,0 -40.267677,68.70824 -64.629129,111.71876 -0.263096,0.4645 -1.492718,1.94328 -0.351401,1.95853 0,0 146.22167,0.009 206.86075,-0.1788 3.10977,-0.01 -1.04554,-8.04925 -4.67155,-8.07547 -1.38749,-0.01 -2.74164,0.10363 -4.1615,0.0946 L 94.067531,247.58733 c -19.815556,-1.36869 -1.663819,-15.24648 9.548769,-15.49156 0,0 103.80892,0.43483 155.81219,0.35089 2.95719,-0.005 -1.48554,-7.6515 -4.44262,-7.67912 -41.89797,-0.39125 -147.56205,-0.98495 -147.56205,-0.98495 -18.967313,-1.36869 -1.59157,-15.24648 9.14104,-15.49156 0,0 79.63604,0.63806 129.0655,0.30437 0.46512,-0.003 1.27001,0.11727 1.84225,-0.10843 0.20156,-0.0795 0.60934,-0.22784 0.50025,-0.41505 C 212.22327,146.72254 174.73224,81.515245 144.19315,29.127294 c -0.24476,-0.419756 -0.57014,-0.587961 -0.93845,-0.56069 z m 0.22169,115.800681 c 1.77983,-0.0792 3.20859,1.33957 4.19407,3.47989 l 4.20852,7.61349 -4.20852,-7.61349 c 10.79696,19.00329 25.29613,44.13787 25.29613,44.13787 2.32596,4.98668 1.4283,7.53813 -0.90434,8.42378 -28.75375,-0.2319 -53.99205,-0.43046 -53.99205,-0.43046 -6.55472,-0.57994 -7.78406,-3.40546 -6.36241,-6.48798 0.28924,-0.49348 0.59204,-1.00967 0.87954,-1.50017 0.001,-0.002 0.003,-0.004 0.004,-0.006 l 4.49999,-7.44503 h -0.13746 c 10.78403,-18.40105 21.05452,-35.92958 21.05452,-35.92958 2.0537,-2.9362 3.89745,-4.17225 5.46789,-4.24212 z"
       style="opacity:1;fill:#000000;fill-rule:evenodd;stroke-width:0.79375;stroke-linecap:round;stroke-linejoin:bevel;stroke-dashoffset:9"
       id="path986" />
  </g>
</svg>
